<?xml version="1.0" encoding="utf-8"?>
<!-- Generator: Adobe Illustrator 16.0.0, SVG Export Plug-In . SVG Version: 6.00 Build 0)  -->
<!DOCTYPE svg PUBLIC "-//W3C//DTD SVG 1.1//EN" "http://www.w3.org/Graphics/SVG/1.1/DTD/svg11.dtd">
<svg version="1.1" id="Layer_1" xmlns="http://www.w3.org/2000/svg" xmlns:xlink="http://www.w3.org/1999/xlink" x="0px" y="0px"
	 width="181px" height="191px" viewBox="0 0 181 191" enable-background="new 0 0 181 191" xml:space="preserve">
<g>
	<g>
		<path fill="#383433" d="M105.446,80.823c-0.23-0.104-0.461-0.21-0.691-0.314c0.193-0.529,0.289-1.125,0.595-1.576
			c3.403-5.021,6.843-10.016,10.261-15.024c0.201-0.294,0.314-0.647,0.468-0.974c-0.109-0.065-0.22-0.131-0.329-0.196
			c-4.074,5.615-8.148,11.23-12.224,16.846c-0.29-0.198-0.581-0.397-0.872-0.597c3.749-5.872,7.934-11.479,11.667-17.359
			c-0.156-0.104-0.313-0.206-0.469-0.31c-4.057,5.62-8.114,11.24-12.171,16.861c-0.197-0.065-0.393-0.13-0.59-0.194
			c0.073-0.437,0.029-0.942,0.242-1.294c0.633-1.047,1.363-2.034,2.059-3.042c2.91-4.224,5.822-8.445,9.011-13.071
			c-0.647,0.207-0.804,0.207-0.865,0.284c-4.464,5.603-8.971,11.172-13.322,16.861c-0.61,0.798-0.954,2.406-0.567,3.247
			c1.172,2.552,0.181,4.347-1.297,6.271c-1.601,2.087-3.004,4.324-4.506,6.487c-0.58,0.833-1.195,1.642-1.896,2.6
			c-2.538-3.693-4.906-7.192-7.336-10.647c-0.741-1.054-1.127-1.908-0.506-3.29c0.521-1.159,0.588-2.652,0.45-3.954
			c-0.754-7.129-7.459-14.725-14.441-16.519c-0.354-0.091-0.714-0.181-1.076-0.217c-1.896-0.183-2.938,0.507-3.348,2.344
			c-0.185,0.827-0.254,1.709-0.202,2.555c0.319,5.168,2.04,9.841,5.428,13.761c2.64,3.053,5.819,5.264,10.181,4.914
			c0.351-0.029,0.871,0.172,1.069,0.444c2.942,4.046,5.844,8.122,8.806,12.261c-2.86,3.754-5.408,7.536-8.411,10.911
			c-2.795,3.143-6.075,5.854-9.143,8.753c-2.621,2.479-2.958,3.595-1.561,6.79c0.309,0.705,1.356,1.46,2.121,1.527
			c3.315,0.291,4.727-0.539,5.88-4.014c2.539-7.648,6.549-14.473,11.166-20.993c0.294-0.416,0.64-0.795,1.069-1.323
			c3.893,6.029,8.176,11.573,10.442,18.3c0.661,1.965,1.47,3.896,2.398,5.748c0.913,1.821,4.234,2.891,6.08,2.08
			c0.401-0.176,0.843-0.594,0.975-0.996c1.202-3.663,1.594-4.117-1.125-6.899c-0.727-0.743-1.51-1.444-2.335-2.074
			c-6.397-4.874-10.759-11.476-15.439-17.911c2.885-4.035,5.668-7.991,8.545-11.877c0.354-0.477,1.221-0.844,1.828-0.815
			c2.609,0.12,4.442-0.951,5.768-3.159c3.277-5.461,6.607-10.889,9.901-16.339c0.196-0.326,0.268-0.727,0.396-1.093
			c-0.123-0.07-0.245-0.141-0.368-0.212C113.256,69.865,109.351,75.344,105.446,80.823z"/>
	</g>
	<g>
		<path fill="#383433" d="M167.536,99.338c-3.976-2.561-4.027-6.826-0.112-9.482c3.915-2.652,3.479-6.145-0.966-7.756
			c-4.445-1.613-5.443-5.762-2.219-9.221c3.226-3.457,2.025-6.764-2.668-7.348c-4.692-0.58-6.59-4.402-4.213-8.49
			c2.374-4.092,0.467-7.045-4.238-6.572c-4.703,0.477-7.402-2.828-5.997-7.342c1.406-4.516-1.11-6.975-5.591-5.463
			c-4.482,1.512-7.847-1.107-7.483-5.824c0.366-4.713-2.634-6.553-6.666-4.078c-4.034,2.469-7.899,0.662-8.591-4.016
			c-0.692-4.678-4.027-5.799-7.408-2.496c-3.381,3.307-7.552,2.408-9.266-2c-1.72-4.406-5.217-4.758-7.78-0.785
			c-2.563,3.979-6.829,4.025-9.483,0.113c-2.652-3.914-6.143-3.482-7.755,0.965c-1.613,4.445-5.76,5.443-9.219,2.219
			c-3.46-3.225-6.764-2.023-7.345,2.668c-0.584,4.691-4.408,6.59-8.495,4.215c-4.091-2.375-7.045-0.469-6.571,4.234
			c0.477,4.705-2.827,7.404-7.342,5.996c-4.514-1.402-6.972,1.113-5.462,5.594c1.511,4.48-1.111,7.848-5.824,7.48
			c-4.715-0.363-6.551,2.635-4.08,6.67c2.468,4.033,0.663,7.898-4.016,8.59c-4.678,0.691-5.802,4.025-2.496,7.408
			c3.307,3.381,2.407,7.553-2.001,9.266c-4.405,1.719-4.759,5.217-0.783,7.777c3.976,2.564,4.026,6.83,0.11,9.486
			c-3.914,2.648-3.479,6.141,0.968,7.752c4.444,1.613,5.444,5.762,2.218,9.221c-3.225,3.459-2.026,6.764,2.669,7.348
			c4.692,0.584,6.59,4.404,4.212,8.494c-2.374,4.088-0.468,7.045,4.237,6.57c4.705-0.479,7.406,2.826,5.999,7.342
			c-1.406,4.512,1.11,6.973,5.591,5.459c4.482-1.508,7.847,1.111,7.483,5.826c-0.366,4.715,2.635,6.553,6.667,4.08
			c4.032-2.471,7.896-0.662,8.588,4.014c0.694,4.682,4.027,5.801,7.411,2.494c3.379-3.303,7.549-2.402,9.266,2.004
			c1.719,4.406,5.218,4.758,7.779,0.781c2.562-3.973,6.827-4.025,9.481-0.107c2.654,3.912,6.145,3.479,7.756-0.969
			c1.611-4.445,5.759-5.445,9.219-2.217c3.459,3.225,6.765,2.021,7.35-2.67c0.579-4.688,4.402-6.588,8.492-4.211
			c4.088,2.373,7.045,0.469,6.568-4.236c-0.475-4.707,2.829-7.408,7.342-6c4.516,1.408,6.975-1.109,5.465-5.594
			c-1.511-4.48,1.108-7.846,5.824-7.48c4.713,0.367,6.551-2.635,4.082-6.668c-2.471-4.029-0.665-7.896,4.012-8.59
			c4.678-0.691,5.8-4.025,2.494-7.406c-3.305-3.383-2.404-7.553,2.004-9.27C171.155,105.398,171.511,101.896,167.536,99.338z
			 M90.502,165.648c-38.747,0-70.151-31.404-70.151-70.146c0-38.744,31.404-70.152,70.151-70.152
			c38.743,0,70.151,31.408,70.151,70.152C160.653,134.244,129.245,165.648,90.502,165.648z"/>
	</g>
	<g>
		<path fill="#383433" d="M90.502,28.79c-33.757,0-61.639,25.076-66.078,57.615c-0.058,0.234-0.1,0.473-0.162,0.707
			c-0.008,0.285-0.025,0.574-0.037,0.859c-0.276,2.475-0.434,4.98-0.434,7.531c0,36.842,29.865,66.705,66.711,66.705
			c36.843,0,66.709-29.863,66.709-66.705C157.212,58.657,127.346,28.79,90.502,28.79z M131.65,80.868l9.091,16.085l-9.091,16.088
			h19.884c-7.613,26.537-32.047,45.965-61.032,45.965c-28.988,0-53.42-19.428-61.035-45.965h19.688l-9.087-16.088l9.087-16.085
			H28.709c6.608-28.016,31.755-48.873,61.793-48.873c30.036,0,55.18,20.857,61.791,48.873H131.65z M152.433,94.498l-2.238,2.178
			l0.529,3.082l-2.766-1.453l-2.767,1.453l0.528-3.082l-2.24-2.178l3.094-0.453l1.385-2.8l1.383,2.8L152.433,94.498z M37.522,94.498
			l-2.24,2.178l0.53,3.082l-2.766-1.453l-2.768,1.453l0.529-3.082l-2.24-2.178l3.094-0.453l1.385-2.8l1.383,2.8L37.522,94.498z"/>
	</g>
	<g id="text_10_">
		<g>
			<path fill="#383433" d="M105.47,100.082h-2.681v-0.957h0.856v-1.924l-0.556-0.484l0.556-0.482v-1.514h-0.849v-0.73l0.849-0.593
				h0.976v2.836l0.557,0.482l-0.557,0.484v1.924h0.849V100.082z"/>
			<path fill="#383433" d="M112.602,96.717l-0.557,0.484v1.77l-1.258,1.111h-1.916l-1.249-1.111v-1.213h0.976v0.783l0.693,0.566
				h1.085l0.693-0.604l-0.019-1.295l-2.18-0.008l-1.249-0.959v-1.74l1.249-1.104h1.916l1.258,1.104v1.723L112.602,96.717z
				 M111.069,96.234v-1.26l-0.693-0.602h-1.085l-0.693,0.557v0.84l0.557,0.465H111.069z"/>
			<path fill="#383433" d="M119.168,96.717l-0.557,0.484v1.77l-1.258,1.111h-1.916l-1.249-1.111v-1.213h0.976v0.783l0.693,0.566
				h1.085l0.693-0.604l-0.019-1.295l-2.18-0.008l-1.249-0.959v-1.74l1.249-1.104h1.916l1.258,1.104v1.723L119.168,96.717z
				 M117.636,96.234v-1.26l-0.693-0.602h-1.085l-0.693,0.557v0.84l0.557,0.465H117.636z"/>
			<path fill="#383433" d="M126.08,96.764l-0.556,0.482v1.725l-1.249,1.111h-1.824l-1.259-1.111v-1.725l-0.556-0.482l0.556-0.494
				v-1.76l1.259-1.112h1.824l1.249,1.112v1.76L126.08,96.764z M124.549,98.514v-3.539l-0.696-0.602h-0.988l-0.696,0.602v3.539
				l0.696,0.594h0.988L124.549,98.514z"/>
		</g>
		<g>
			<path fill="#383433" d="M55.903,100.074h-4.04v-2.828l-0.557-0.492l0.557-0.484v-2.872h4.04v0.975h-3.064v1.896h2.362v0.977
				h-2.362v1.852h3.064V100.074z"/>
			<path fill="#383433" d="M62.587,98.971l-1.256,1.111h-2.267l-1.256-1.111v-1.213h0.976v0.746l0.693,0.604h1.441l0.693-0.604
				v-0.746l-0.693-0.594h-1.714l-1.259-1.121V94.51l1.256-1.112h2.121l1.256,1.112v1.113h-0.967V94.93l-0.65-0.557h-1.391
				l-0.649,0.557v0.693l0.647,0.564h1.76l1.258,1.113V98.971z"/>
			<path fill="#383433" d="M69.154,94.373h-1.943v1.906l0.557,0.484l-0.557,0.482v2.836h-0.976v-2.836l-0.557-0.482l0.557-0.484
				v-1.906h-1.952v-0.975h4.87V94.373z"/>
			<path fill="#383433" d="M71.598,100.082h-0.976v-0.975h0.976V100.082z"/>
		</g>
		<g>
			<path fill="#383433" d="M54.61,134.933l-2.13,0.117l-2.014-2.091l-2.613,2.516l-0.868-0.9l2.621-2.525l-0.048-0.945l0.951,0.076
				l2.654-2.558l2.882,2.993l-0.188,2.115L54.61,134.933z M54.124,133.661l0.474-0.456l0.133-1.152l-1.6-1.659l-1.762,1.696
				l1.6,1.661L54.124,133.661z"/>
			<path fill="#383433" d="M58.48,144.637l-1.045-0.792l0.65-2.194l-2.798-2.121l-1.938,1.219l-1.045-0.793l3.275-2.069
				l-0.094-0.864l1.155,0.199l3.412-2.156l1.045,0.793L58.48,144.637z M58.469,140.369l1.097-3.575l-3.148,2.02L58.469,140.369z"/>
			<path fill="#383433" d="M65.731,148.653l-1.194-0.646l0.15-4.044l-1.348-0.729l-1.727,3.191l-1.102-0.596l1.727-3.191
				l-0.327-0.895l0.923-0.207l1.76-3.253l3.645,1.973l0.455,2.082l-0.817,1.514l-1.994,0.758L65.731,148.653z M67.032,142.778
				l0.313-0.579l-0.229-1.126l-2.018-1.091l-1.165,2.15l2.019,1.093L67.032,142.778z"/>
			<path fill="#383433" d="M71.622,146.426l-0.897,0.32l-1.352,3.367l-1.162-0.466l1.351-3.368l-0.427-0.853l0.893-0.31l1.379-3.433
				l1.162,0.467l-1.378,3.433L71.622,146.426z"/>
			<path fill="#383433" d="M78.389,151.425l-1.933,0.949l-2.805-0.77l-1.177-1.805l0.413-1.5l1.207,0.331l-0.254,0.926l0.652,0.979
				l1.783,0.49l1.063-0.51l0.254-0.926l-0.656-0.969l-2.121-0.582l-1.177-1.817l0.521-1.896l1.933-0.949l2.624,0.721l1.177,1.804
				l-0.379,1.377l-1.195-0.328l0.234-0.858l-0.614-0.91l-1.722-0.472l-0.993,0.467l-0.235,0.858l0.609,0.919l2.178,0.599l1.18,1.806
				L78.389,151.425z"/>
			<path fill="#383433" d="M83.514,149.375l-0.803,0.515l-0.559,3.586l-1.236-0.192l0.558-3.586l-0.608-0.734l0.802-0.503
				l0.569-3.654l1.236,0.192l-0.568,3.654L83.514,149.375z"/>
			<path fill="#383433" d="M92.35,154.177l-1.311-0.046l-0.731-2.17l-3.509-0.124l-0.883,2.113l-1.31-0.048l1.484-3.577
				l-0.574-0.653l1.06-0.501l1.549-3.728l1.31,0.046L92.35,154.177z M89.884,150.693l-1.163-3.555l-1.41,3.464L89.884,150.693z"/>
			<path fill="#383433" d="M101.004,148.925l-0.631,0.704l0.455,3.611l-1.242,0.156l-4.346-5.858l0.793,6.306L94.79,154
				l-0.454-3.611l-0.786-0.526l0.63-0.717l-0.46-3.657l1.312-0.166l4.256,5.693l-0.771-6.131l1.242-0.155l0.461,3.657
				L101.004,148.925z"/>
			<path fill="#383433" d="M111.83,142.16l-3.572,1.407l0.895,2.266l2.83-1.116l0.459,1.165l-2.83,1.116l1.336,3.386l-1.166,0.46
				l-1.334-3.387l-0.893-0.315l0.432-0.85l-1.352-3.43l4.736-1.867L111.83,142.16z"/>
			<path fill="#383433" d="M120.809,140.65l-0.307,0.895l1.109,1.913l-0.67,2.039l-2.633,1.527l-2.113-0.424l-1.109-1.914
				l-0.93-0.179l0.301-0.905l-1.133-1.954l0.68-2.046l2.633-1.526l2.104,0.431l1.133,1.955L120.809,140.65z M120.234,143.58
				l-2.277-3.928l-1.16-0.221l-1.705,0.988l-0.385,1.116l2.277,3.93l1.154,0.21l1.707-0.99L120.234,143.58z"/>
			<path fill="#383433" d="M127.605,135.166l-0.156,0.935l1.41,1.704l-0.326,2.122l-2.344,1.938l-2.154-0.07l-1.41-1.705
				l-0.945-0.022l0.146-0.942l-1.439-1.741l0.334-2.13l2.346-1.939l2.146,0.08l1.439,1.741L127.605,135.166z M127.521,138.151
				l-2.895-3.499l-1.18-0.027l-1.52,1.257l-0.195,1.165l2.895,3.499l1.172,0.018l1.52-1.257L127.521,138.151z"/>
			<path fill="#383433" d="M135.043,131.203l-0.01,2.15l-2.992,3.335l-2.699-2.423l-0.947,0.11l0.014-0.946l-2.744-2.461l2.99-3.335
				l2.135-0.243L135.043,131.203z M133.771,131.745l-3.373-3.023l-1.18,0.156l-1.787,1.993l4.514,4.048l1.787-1.992L133.771,131.745
				z"/>
		</g>
		<g>
			<path fill="#383433" d="M49.111,67.632l-2.597,4.487l-3.15-1.824l-0.895,0.308l-0.189-0.935l-3.191-1.848l0.628-1.084
				l6.341,3.672l1.97-3.404L49.111,67.632z"/>
			<path fill="#383433" d="M54.16,61.119l-0.816,1.027l-2.179-0.703l-2.187,2.747l1.173,1.966l-0.818,1.025l-1.992-3.321
				l-0.867,0.073l0.228-1.15l-2.075-3.463l0.816-1.025L54.16,61.119z M49.895,61.029l-3.549-1.179l1.943,3.194L49.895,61.029z"/>
			<path fill="#383433" d="M58.331,48.033l-1.979,1.517l1.488,1.941l0.944,0.058l-0.19,0.927l2.215,2.89l-0.995,0.762l-2.213-2.889
				l-0.944-0.059l0.189-0.927l-1.487-1.942l-1.988,1.524l-0.763-0.994l4.96-3.802L58.331,48.033z"/>
			<path fill="#383433" d="M69.674,49.928l-1.144,0.639l-1.749-1.477l-3.065,1.713l0.338,2.264l-1.144,0.639l-0.585-3.83
				l-0.829-0.26l0.647-0.979l-0.607-3.99l1.145-0.64L69.674,49.928z M65.761,48.226l-2.836-2.438l0.588,3.693L65.761,48.226z"/>
			<path fill="#383433" d="M75.59,46.023l-0.701,1.973l-4.014,1.496l-1.271-3.41l-0.886-0.332l0.453-0.831l-1.293-3.465l3.893-1.452
				l1.869,1.027l0.602,1.611l-0.427,1.135l1.149,0.57L75.59,46.023z M72.881,42.578l-0.228-0.611l-1.004-0.582l-2.16,0.805
				l0.85,2.281l2.161-0.805L72.881,42.578z M74.225,45.949l-0.248-0.665l-0.911-0.469l-2.281,0.851l0.825,2.215l2.282-0.85
				L74.225,45.949z"/>
			<path fill="#383433" d="M82.796,46.018l-5.064,1.111l-0.781-3.556l-0.83-0.453l0.563-0.771l-0.79-3.601l1.223-0.269l1.569,7.156
				l3.842-0.843L82.796,46.018z"/>
			<path fill="#383433" d="M89.502,45.408l-5.168,0.418l-0.292-3.617l-0.763-0.572l0.662-0.676l-0.297-3.675l5.169-0.418l0.1,1.249
				l-3.919,0.316l0.196,2.426l3.021-0.244l0.102,1.248l-3.021,0.245l0.191,2.368l3.92-0.316L89.502,45.408z"/>
			<path fill="#383433" d="M102.012,45.254l-1.814,1.152l-4.422-0.717l0.58-3.581l-0.604-0.738l0.804-0.498l0.589-3.64l4.422,0.717
				l1.358,1.666L102.012,45.254z M100.869,44.476l0.723-4.472l-0.769-0.906l-2.642-0.428l-0.97,5.984l2.644,0.428L100.869,44.476z"
				/>
			<path fill="#383433" d="M108.075,48.615l-4.949-1.549l1.085-3.463l-0.492-0.816l0.866-0.377l1.102-3.52l4.948,1.549l-0.374,1.195
				l-3.754-1.176l-0.727,2.324l2.893,0.906l-0.374,1.194l-2.893-0.905l-0.71,2.268l3.753,1.174L108.075,48.615z"/>
			<path fill="#383433" d="M121.559,49.793l-2.026,0.664l-2.485-1.5l-1.875,3.105l-1.073-0.646l1.882-3.117l-0.29-0.898l0.938-0.173
				l1.904-3.157l3.557,2.147l0.365,2.093L121.559,49.793z M120.761,48.691l0.341-0.563l-0.17-1.146l-1.975-1.191l-1.264,2.094
				l1.975,1.191L120.761,48.691z"/>
			<path fill="#383433" d="M125.384,59.623l-1.004-0.843l0.758-2.159l-2.688-2.258l-1.995,1.121l-1.005-0.844l3.373-1.905
				l-0.051-0.868l1.144,0.258l3.517-1.984l1.003,0.843L125.384,59.623z M125.585,55.36l1.271-3.517l-3.243,1.861L125.585,55.36z"/>
			<path fill="#383433" d="M129.972,64.889l-0.896-1.021l1.551-3.737l-1.01-1.154l-2.729,2.391l-0.826-0.941l2.73-2.391l0.005-0.953
				l0.937,0.128l2.783-2.437l2.729,3.117l-0.298,2.112l-1.295,1.133l-2.132,0.017L129.972,64.889z M133.237,59.836l0.495-0.434
				l0.178-1.136l-1.512-1.726l-1.839,1.611l1.51,1.726L133.237,59.836z"/>
			<path fill="#383433" d="M135.499,65.493l-0.927-0.228l-2.982,2.064l-0.713-1.029l2.983-2.064l0.114-0.947l0.916,0.234
				l3.041-2.105l0.712,1.03l-3.041,2.104L135.499,65.493z"/>
			<path fill="#383433" d="M136.887,73.67l-2.021-0.748l-1.371-2.564l0.498-2.096l1.372-0.733l0.592,1.104l-0.847,0.453
				l-0.262,1.148l0.873,1.631l1.101,0.42l0.846-0.453l0.251-1.144l-1.038-1.939l0.508-2.104l1.733-0.928l2.02,0.748l1.284,2.399
				l-0.498,2.095l-1.26,0.674l-0.586-1.094l0.785-0.42l0.235-1.072l-0.841-1.574l-1.023-0.397l-0.784,0.419l-0.248,1.076
				l1.066,1.991l-0.497,2.098L136.887,73.67z"/>
		</g>
	</g>
</g>
</svg>
